<svg xmlns="http://www.w3.org/2000/svg" viewBox="0 0 1600 420" width="1600" height="420"><rect width="1600" height="420" fill="#0E1116"/><path d="M0 0 H1600" stroke="#00B3C7" stroke-width="0.8" opacity=".08"/><path d="M0 42 H1600" stroke="#00B3C7" stroke-width="0.8" opacity=".08"/><path d="M0 84 H1600" stroke="#00B3C7" stroke-width="0.8" opacity=".08"/><path d="M0 126 H1600" stroke="#00B3C7" stroke-width="0.8" opacity=".08"/><path d="M0 168 H1600" stroke="#00B3C7" stroke-width="0.8" opacity=".08"/><path d="M0 210 H1600" stroke="#00B3C7" stroke-width="0.8" opacity=".08"/><path d="M0 252 H1600" stroke="#00B3C7" stroke-width="0.8" opacity=".08"/><path d="M0 294 H1600" stroke="#00B3C7" stroke-width="0.8" opacity=".08"/><path d="M0 336 H1600" stroke="#00B3C7" stroke-width="0.8" opacity=".08"/><path d="M0 378 H1600" stroke="#00B3C7" stroke-width="0.8" opacity=".08"/><path d="M0 420 H1600" stroke="#00B3C7" stroke-width="0.8" opacity=".08"/><g transform="translate(360 250) scale(0.68)">
    <rect x="-150" y="-120" width="300" height="190" rx="12" fill="#171C24" stroke="#7A8694" stroke-width="4"/>
    <rect x="-132" y="-104" width="264" height="158" rx="6" fill="#00B3C7" opacity=".8"/>
    <path d="M-210 70 h420 l-24 34 h-372 z" fill="#B6C0CB"/>
  </g><g transform="translate(820 210) scale(0.62)">
    <rect x="-90" y="-170" width="180" height="340" rx="26" fill="#171C24" stroke="#7A8694" stroke-width="4"/>
    <rect x="-74" y="-146" width="148" height="292" rx="14" fill="#00B3C7" opacity=".85"/>
    <rect x="-26" y="-160" width="52" height="10" rx="5" fill="#0E1116"/>
    <rect x="-52" y="-110" width="104" height="10" rx="5" fill="#FFFFFF" opacity=".55"/>
    <rect x="-52" y="-84" width="70" height="10" rx="5" fill="#FFFFFF" opacity=".35"/>
    <circle cx="0" cy="120" r="18" fill="#0E1116" opacity=".35"/>
  </g><g transform="translate(1240 190) scale(0.7)">
    <path d="M-120 20 v-40 a120 120 0 0 1 240 0 v40" fill="none" stroke="#E5399E" stroke-width="26" stroke-linecap="round"/>
    <rect x="-152" y="10" width="64" height="120" rx="28" fill="#E5399E"/>
    <rect x="88" y="10" width="64" height="120" rx="28" fill="#E5399E"/>
    <rect x="-140" y="26" width="40" height="88" rx="20" fill="#0E1116" opacity=".35"/>
    <rect x="100" y="26" width="40" height="88" rx="20" fill="#0E1116" opacity=".35"/>
  </g><rect x="0" y="392" width="1600" height="28" fill="#171C24"/></svg>