<svg xmlns="http://www.w3.org/2000/svg" viewBox="0 0 900 700" width="900" height="700"><rect width="900" height="700" fill="#FFF6E8"/><circle cx="450" cy="340" r="210" fill="none" stroke="#E8D6C0" stroke-width="26"/><circle cx="450" cy="130" r="46" fill="#D5283A"/><text x="450" y="140" text-anchor="middle" font-family="Bookman Old Style,Georgia,serif" font-size="32" font-weight="bold" fill="#FFFFFF">1</text><text x="450" y="60" text-anchor="middle" font-family="Arial,sans-serif" font-size="25" font-weight="bold" fill="#2A1620">Первый визит</text><circle cx="660" cy="340" r="46" fill="#E0A100"/><text x="660" y="350" text-anchor="middle" font-family="Bookman Old Style,Georgia,serif" font-size="32" font-weight="bold" fill="#FFFFFF">2</text><text x="660" y="270" text-anchor="middle" font-family="Arial,sans-serif" font-size="25" font-weight="bold" fill="#2A1620">Впечатление</text><circle cx="450" cy="550" r="46" fill="#4B7F52"/><text x="450" y="560" text-anchor="middle" font-family="Bookman Old Style,Georgia,serif" font-size="32" font-weight="bold" fill="#FFFFFF">3</text><text x="450" y="642" text-anchor="middle" font-family="Arial,sans-serif" font-size="25" font-weight="bold" fill="#2A1620">Повод вернуться</text><circle cx="240" cy="340" r="46" fill="#7A4A2B"/><text x="240" y="350" text-anchor="middle" font-family="Bookman Old Style,Georgia,serif" font-size="32" font-weight="bold" fill="#FFFFFF">4</text><text x="240" y="432" text-anchor="middle" font-family="Arial,sans-serif" font-size="25" font-weight="bold" fill="#2A1620">Повторный визит</text><path d="M586.492424049175 179.50757595082504 l14 12 -14 12" fill="none" stroke="#8A6B58" stroke-width="5" stroke-linecap="round" stroke-linejoin="round" transform="rotate(45 598.492424049175 191.50757595082504)"/><path d="M586.492424049175 476.49242404917493 l14 12 -14 12" fill="none" stroke="#8A6B58" stroke-width="5" stroke-linecap="round" stroke-linejoin="round" transform="rotate(135 598.492424049175 488.49242404917493)"/><path d="M289.50757595082507 476.492424049175 l14 12 -14 12" fill="none" stroke="#8A6B58" stroke-width="5" stroke-linecap="round" stroke-linejoin="round" transform="rotate(225 301.50757595082507 488.492424049175)"/><path d="M289.50757595082496 179.50757595082504 l14 12 -14 12" fill="none" stroke="#8A6B58" stroke-width="5" stroke-linecap="round" stroke-linejoin="round" transform="rotate(315 301.50757595082496 191.50757595082504)"/><circle cx="450" cy="340" r="112" fill="#FFFFFF" stroke="#E8D6C0" stroke-width="2"/><text x="450" y="328" text-anchor="middle" font-family="Bookman Old Style,Georgia,serif" font-size="44" font-weight="bold" fill="#D5283A">×5–25</text><text x="450" y="364" text-anchor="middle" font-family="Arial,sans-serif" font-size="20" fill="#8A6B58">дешевле вернуть,</text><text x="450" y="390" text-anchor="middle" font-family="Arial,sans-serif" font-size="20" fill="#8A6B58">чем привести нового</text></svg>