<svg xmlns="http://www.w3.org/2000/svg" viewBox="0 0 1240 520" width="1240" height="520"><line x1="80" y1="400" x2="1180" y2="400" stroke="#E8D6C0" stroke-width="3"/><rect x="73" y="238.79999999999998" width="62" height="161.20000000000002" rx="10" fill="#F2C14E" opacity=".55"/><rect x="105" y="301.2" width="62" height="98.8" rx="10" fill="#D5283A" opacity=".9"/><text x="120" y="440" text-anchor="middle" font-family="Arial,sans-serif" font-size="24" fill="#2A1620">Пн</text><rect x="227.28571428571428" y="249.2" width="62" height="150.8" rx="10" fill="#F2C14E" opacity=".55"/><rect x="259.2857142857143" y="311.6" width="62" height="88.4" rx="10" fill="#D5283A" opacity=".9"/><text x="274.2857142857143" y="440" text-anchor="middle" font-family="Arial,sans-serif" font-size="24" fill="#2A1620">Вт</text><rect x="381.57142857142856" y="233.6" width="62" height="166.4" rx="10" fill="#F2C14E" opacity=".55"/><rect x="413.57142857142856" y="306.4" width="62" height="93.60000000000001" rx="10" fill="#D5283A" opacity=".9"/><text x="428.57142857142856" y="440" text-anchor="middle" font-family="Arial,sans-serif" font-size="24" fill="#2A1620">Ср</text><rect x="535.8571428571429" y="212.79999999999998" width="62" height="187.20000000000002" rx="10" fill="#F2C14E" opacity=".55"/><rect x="567.8571428571429" y="285.6" width="62" height="114.4" rx="10" fill="#D5283A" opacity=".9"/><text x="582.8571428571429" y="440" text-anchor="middle" font-family="Arial,sans-serif" font-size="24" fill="#2A1620">Чт</text><rect x="690.1428571428571" y="166" width="62" height="234" rx="10" fill="#F2C14E" opacity=".55"/><rect x="722.1428571428571" y="197.2" width="62" height="202.8" rx="10" fill="#D5283A" opacity=".9"/><text x="737.1428571428571" y="440" text-anchor="middle" font-family="Arial,sans-serif" font-size="24" fill="#2A1620">Пт</text><rect x="844.4285714285713" y="145.2" width="62" height="254.8" rx="10" fill="#F2C14E" opacity=".55"/><rect x="876.4285714285713" y="150.39999999999998" width="62" height="249.60000000000002" rx="10" fill="#D5283A" opacity=".9"/><text x="891.4285714285713" y="440" text-anchor="middle" font-family="Arial,sans-serif" font-size="24" fill="#2A1620">Сб</text><rect x="998.7142857142858" y="160.79999999999998" width="62" height="239.20000000000002" rx="10" fill="#F2C14E" opacity=".55"/><rect x="1030.7142857142858" y="171.2" width="62" height="228.8" rx="10" fill="#D5283A" opacity=".9"/><text x="1045.7142857142858" y="440" text-anchor="middle" font-family="Arial,sans-serif" font-size="24" fill="#2A1620">Вс</text><rect x="120" y="476" width="26" height="26" rx="7" fill="#D5283A" opacity=".9"/><text x="158" y="496" font-family="Arial,sans-serif" font-size="22" fill="#2A1620">как сейчас</text><rect x="380" y="476" width="26" height="26" rx="7" fill="#F2C14E" opacity=".75"/><text x="418" y="496" font-family="Arial,sans-serif" font-size="22" fill="#2A1620">после работы с поводами</text><text x="300" y="140" text-anchor="middle" font-family="Bookman Old Style,Georgia,serif" font-size="30" font-weight="bold" fill="#8A6B58">будни пустые</text><path d="M300 164 q -26 56 -44 104" stroke="#8A6B58" stroke-width="3" fill="none" stroke-dasharray="8 8"/><path d="M240 250 l16 22 26 -8" fill="none" stroke="#8A6B58" stroke-width="3" stroke-linecap="round" stroke-linejoin="round"/></svg>