<svg xmlns="http://www.w3.org/2000/svg" viewBox="0 0 900 640" width="900" height="640"><rect width="900" height="640" fill="#FFF4EC" rx="24"/><path d="M340 120 A 200 200 0 0 1 389.737977432971 513.7166322257262 L369.3454066854529 434.2928130131785 A 118 118 0 0 0 340 202 Z" fill="#FF6B4A"/><path d="M389.737977432971 513.7166322257262 A 200 200 0 0 1 149.7886967409693 381.8033988749895 L227.77533107717187 356.4640053362438 A 118 118 0 0 0 369.3454066854529 434.2928130131785 Z" fill="#FFC24B"/><path d="M149.7886967409693 381.8033988749895 A 200 200 0 0 1 185.89735144484214 192.51520205026208 L249.07943735245686 244.78396920965463 A 118 118 0 0 0 227.77533107717187 356.4640053362438 Z" fill="#2BA6A0"/><path d="M185.89735144484214 192.51520205026208 A 200 200 0 0 1 339.99999999999994 120 L340 202 A 118 118 0 0 0 249.07943735245686 244.78396920965463 Z" fill="#7ED0C9"/><circle cx="340" cy="320" r="110" fill="#FFFFFF"/><ellipse cx="340" cy="330.6" rx="65" ry="20.8" fill="#C08A5E"/><path d="M275 330.6 q 65 65 130 0 l-15.6 26 q -49.4 31.2 -98.8 0 Z" fill="#FF9776"/><circle cx="379" cy="328" r="5.85" fill="#8B5E3C"/><circle cx="373.7749907475931" cy="333.2" r="5.85" fill="#8B5E3C"/><circle cx="359.5" cy="337.00666419935817" r="5.85" fill="#8B5E3C"/><circle cx="340" cy="338.4" r="5.85" fill="#8B5E3C"/><circle cx="320.5" cy="337.00666419935817" r="5.85" fill="#8B5E3C"/><circle cx="306.2250092524069" cy="333.2" r="5.85" fill="#8B5E3C"/><circle cx="301" cy="328" r="5.85" fill="#8B5E3C"/><circle cx="306.2250092524069" cy="322.8" r="5.85" fill="#8B5E3C"/><circle cx="320.5" cy="318.99333580064183" r="5.85" fill="#8B5E3C"/><circle cx="340" cy="317.6" r="5.85" fill="#8B5E3C"/><circle cx="359.5" cy="318.99333580064183" r="5.85" fill="#8B5E3C"/><circle cx="373.7749907475931" cy="322.8" r="5.85" fill="#8B5E3C"/><rect x="620" y="148" width="30" height="30" rx="9" fill="#FF6B4A"/><text x="666" y="170" font-family="Century Schoolbook,Georgia,serif" font-size="25" font-weight="bold" fill="#22303B">Мясо и белок</text><text x="666" y="200" font-family="Arial,sans-serif" font-size="22" fill="#2E4756">46%</text><rect x="620" y="226" width="30" height="30" rx="9" fill="#FFC24B"/><text x="666" y="248" font-family="Century Schoolbook,Georgia,serif" font-size="25" font-weight="bold" fill="#22303B">Злаки</text><text x="666" y="278" font-family="Arial,sans-serif" font-size="22" fill="#2E4756">24%</text><rect x="620" y="304" width="30" height="30" rx="9" fill="#2BA6A0"/><text x="666" y="326" font-family="Century Schoolbook,Georgia,serif" font-size="25" font-weight="bold" fill="#22303B">Овощи, клетчатка</text><text x="666" y="356" font-family="Arial,sans-serif" font-size="22" fill="#2E4756">16%</text><rect x="620" y="382" width="30" height="30" rx="9" fill="#7ED0C9"/><text x="666" y="404" font-family="Century Schoolbook,Georgia,serif" font-size="25" font-weight="bold" fill="#22303B">Витамины и минералы</text><text x="666" y="434" font-family="Arial,sans-serif" font-size="22" fill="#2E4756">14%</text></svg>