<svg xmlns="http://www.w3.org/2000/svg" viewBox="0 0 1011 1000" width="1011" height="1000"><defs><radialGradient id="pg" cx="0.5" cy="0.35" r="0.75">
    <stop offset="0" stop-color="#FFF4EC"/><stop offset="1" stop-color="#FFE7D6"/></radialGradient></defs><rect width="1011" height="1000" fill="url(#pg)"/><circle cx="505.5" cy="430" r="300" fill="#7ED0C9" opacity=".3"/><circle cx="505.5" cy="430" r="230" fill="#FFFFFF" opacity=".55"/><ellipse cx="245.5" cy="191.9" rx="26.52" ry="21.08" fill="#FF6B4A" opacity="0.22"/><ellipse cx="221.02" cy="158.92000000000002" rx="8.84" ry="10.88" fill="#FF6B4A" opacity="0.22"/><ellipse cx="236.66" cy="148.72" rx="8.84" ry="10.88" fill="#FF6B4A" opacity="0.22"/><ellipse cx="254.34" cy="148.72" rx="8.84" ry="10.88" fill="#FF6B4A" opacity="0.22"/><ellipse cx="269.98" cy="158.92000000000002" rx="8.84" ry="10.88" fill="#FF6B4A" opacity="0.22"/><ellipse cx="775.5" cy="259.1" rx="20.28" ry="16.12" fill="#2BA6A0" opacity="0.25"/><ellipse cx="756.78" cy="233.88" rx="6.76" ry="8.32" fill="#2BA6A0" opacity="0.25"/><ellipse cx="768.74" cy="226.07999999999998" rx="6.76" ry="8.32" fill="#2BA6A0" opacity="0.25"/><ellipse cx="782.26" cy="226.07999999999998" rx="6.76" ry="8.32" fill="#2BA6A0" opacity="0.25"/><ellipse cx="794.22" cy="233.88" rx="6.76" ry="8.32" fill="#2BA6A0" opacity="0.25"/><ellipse cx="245.5" cy="809.8" rx="21.84" ry="17.36" fill="#2BA6A0" opacity="0.2"/><ellipse cx="225.34" cy="782.64" rx="7.28" ry="8.96" fill="#2BA6A0" opacity="0.2"/><ellipse cx="238.22" cy="774.24" rx="7.28" ry="8.96" fill="#2BA6A0" opacity="0.2"/><ellipse cx="252.78" cy="774.24" rx="7.28" ry="8.96" fill="#2BA6A0" opacity="0.2"/><ellipse cx="265.66" cy="782.64" rx="7.28" ry="8.96" fill="#2BA6A0" opacity="0.2"/><ellipse cx="785.5" cy="772.6" rx="28.080000000000002" ry="22.32" fill="#FF6B4A" opacity="0.18"/><ellipse cx="759.58" cy="737.68" rx="9.36" ry="11.52" fill="#FF6B4A" opacity="0.18"/><ellipse cx="776.14" cy="726.88" rx="9.36" ry="11.52" fill="#FF6B4A" opacity="0.18"/><ellipse cx="794.86" cy="726.88" rx="9.36" ry="11.52" fill="#FF6B4A" opacity="0.18"/><ellipse cx="811.42" cy="737.68" rx="9.36" ry="11.52" fill="#FF6B4A" opacity="0.18"/><g transform="translate(425.5 690) scale(1.05)"><path d="M-92 6 q -60 -10 -54 -70" stroke="#8B5E3C" stroke-width="22" fill="none" stroke-linecap="round"/><path d="M-70 10 q -14 -150 70 -150 q 84 0 70 150 Z" fill="#C08A5E"/><ellipse cx="0" cy="-24" rx="46" ry="60" fill="#FFE7D6"/><ellipse cx="-42" cy="6" rx="26" ry="16" fill="#8B5E3C"/><ellipse cx="42" cy="6" rx="26" ry="16" fill="#8B5E3C"/><ellipse cx="0" cy="-176" rx="76" ry="68" fill="#C08A5E"/><path d="M-64 -206 q -34 -6 -30 52 q 4 40 34 22 Z" fill="#8B5E3C"/><path d="M64 -206 q 34 -6 30 52 q -4 40 -34 22 Z" fill="#8B5E3C"/><ellipse cx="0" cy="-146" rx="40" ry="30" fill="#FFF4EC"/><ellipse cx="0" cy="-160" rx="13" ry="10" fill="#1B262E"/><path d="M0 -150 v10 M0 -140 q -14 10 -22 -2 M0 -140 q 14 10 22 -2" stroke="#1B262E" stroke-width="4" fill="none" stroke-linecap="round"/><circle cx="-28" cy="-192" r="9" fill="#1B262E"/><circle cx="28" cy="-192" r="9" fill="#1B262E"/><circle cx="-25" cy="-195" r="3" fill="#FFFFFF"/><circle cx="31" cy="-195" r="3" fill="#FFFFFF"/></g><g transform="translate(685.5 700) scale(0.9)"><path d="M-70 0 q -80 6 -60 -70" stroke="#9AAAB4" stroke-width="20" fill="none" stroke-linecap="round"/><path d="M-58 6 q -8 -128 58 -128 q 66 0 58 128 Z" fill="#9AAAB4"/><ellipse cx="0" cy="-22" rx="34" ry="48" fill="#FFFFFF" opacity=".85"/><ellipse cx="-34" cy="4" rx="20" ry="13" fill="#FFFFFF" opacity=".9"/><ellipse cx="34" cy="4" rx="20" ry="13" fill="#FFFFFF" opacity=".9"/><ellipse cx="0" cy="-152" rx="60" ry="54" fill="#9AAAB4"/><path d="M-56 -186 l6 -58 46 30 Z" fill="#9AAAB4"/><path d="M-44 -190 l4 -34 26 18 Z" fill="#FFB3A0"/><path d="M56 -186 l-6 -58 -46 30 Z" fill="#9AAAB4"/><path d="M44 -190 l-4 -34 -26 18 Z" fill="#FFB3A0"/><circle cx="-22" cy="-160" r="8" fill="#1B262E"/><circle cx="22" cy="-160" r="8" fill="#1B262E"/><circle cx="-19" cy="-163" r="2.6" fill="#FFFFFF"/><circle cx="25" cy="-163" r="2.6" fill="#FFFFFF"/><path d="M0 -140 l-8 -8 h16 Z" fill="#FFB3A0"/><path d="M0 -138 v8 M0 -130 q -12 8 -18 -2 M0 -130 q 12 8 18 -2" stroke="#1B262E" stroke-width="3.4" fill="none" stroke-linecap="round"/><path d="M-26 -146 h-40 M-26 -138 h-38 M26 -146 h40 M26 -138 h38" stroke="#FFFFFF" stroke-width="3" stroke-linecap="round" opacity=".9"/></g><ellipse cx="525.5" cy="775.8" rx="95" ry="30.400000000000002" fill="#C08A5E"/><path d="M430.5 775.8 q 95 95 190 0 l-22.8 38 q -72.2 45.6 -144.4 0 Z" fill="#FF6B4A"/><circle cx="582.5" cy="772" r="8.549999999999999" fill="#8B5E3C"/><circle cx="574.863448015713" cy="779.6" r="8.549999999999999" fill="#8B5E3C"/><circle cx="554" cy="785.1635861375235" r="8.549999999999999" fill="#8B5E3C"/><circle cx="525.5" cy="787.2" r="8.549999999999999" fill="#8B5E3C"/><circle cx="497" cy="785.1635861375235" r="8.549999999999999" fill="#8B5E3C"/><circle cx="476.136551984287" cy="779.6" r="8.549999999999999" fill="#8B5E3C"/><circle cx="468.5" cy="772" r="8.549999999999999" fill="#8B5E3C"/><circle cx="476.136551984287" cy="764.4" r="8.549999999999999" fill="#8B5E3C"/><circle cx="497" cy="758.8364138624765" r="8.549999999999999" fill="#8B5E3C"/><circle cx="525.5" cy="756.8" r="8.549999999999999" fill="#8B5E3C"/><circle cx="554" cy="758.8364138624765" r="8.549999999999999" fill="#8B5E3C"/><circle cx="574.863448015713" cy="764.4" r="8.549999999999999" fill="#8B5E3C"/><circle cx="312.5" cy="282.72" r="14.560000000000002" fill="#FF6B4A" opacity="0.55"/><circle cx="338.5" cy="282.72" r="14.560000000000002" fill="#FF6B4A" opacity="0.55"/><path d="M298.98 288.44 L325.5 317.3 L352.02 288.44 Z" fill="#FF6B4A" opacity="0.55"/><circle cx="716" cy="234.68" r="10.64" fill="#FF6B4A" opacity="0.55"/><circle cx="735" cy="234.68" r="10.64" fill="#FF6B4A" opacity="0.55"/><path d="M706.12 238.86 L725.5 259.95 L744.88 238.86 Z" fill="#FF6B4A" opacity="0.55"/><circle cx="588.5" cy="156.08" r="7.840000000000001" fill="#FF6B4A" opacity="0.55"/><circle cx="602.5" cy="156.08" r="7.840000000000001" fill="#FF6B4A" opacity="0.55"/><path d="M581.22 159.16 L595.5 174.7 L609.78 159.16 Z" fill="#FF6B4A" opacity="0.55"/></svg>