<svg xmlns="http://www.w3.org/2000/svg" viewBox="0 0 1240 900" width="1240" height="900"><rect width="1240" height="900" fill="#F7F5F1"/><path d="M0 0 V900" stroke="#157A6E" stroke-width="0.7" opacity=".08"/><path d="M28 0 V900" stroke="#157A6E" stroke-width="0.7" opacity=".08"/><path d="M56 0 V900" stroke="#157A6E" stroke-width="0.7" opacity=".08"/><path d="M84 0 V900" stroke="#157A6E" stroke-width="0.7" opacity=".08"/><path d="M112 0 V900" stroke="#157A6E" stroke-width="0.7" opacity=".08"/><path d="M140 0 V900" stroke="#157A6E" stroke-width="0.7" opacity=".08"/><path d="M168 0 V900" stroke="#157A6E" stroke-width="0.7" opacity=".08"/><path d="M196 0 V900" stroke="#157A6E" stroke-width="0.7" opacity=".08"/><path d="M224 0 V900" stroke="#157A6E" stroke-width="0.7" opacity=".08"/><path d="M252 0 V900" stroke="#157A6E" stroke-width="0.7" opacity=".08"/><path d="M280 0 V900" stroke="#157A6E" stroke-width="0.7" opacity=".08"/><path d="M308 0 V900" stroke="#157A6E" stroke-width="0.7" opacity=".08"/><path d="M336 0 V900" stroke="#157A6E" stroke-width="0.7" opacity=".08"/><path d="M364 0 V900" stroke="#157A6E" stroke-width="0.7" opacity=".08"/><path d="M392 0 V900" stroke="#157A6E" stroke-width="0.7" opacity=".08"/><path d="M420 0 V900" stroke="#157A6E" stroke-width="0.7" opacity=".08"/><path d="M448 0 V900" stroke="#157A6E" stroke-width="0.7" opacity=".08"/><path d="M476 0 V900" stroke="#157A6E" stroke-width="0.7" opacity=".08"/><path d="M504 0 V900" stroke="#157A6E" stroke-width="0.7" opacity=".08"/><path d="M532 0 V900" stroke="#157A6E" stroke-width="0.7" opacity=".08"/><path d="M560 0 V900" stroke="#157A6E" stroke-width="0.7" opacity=".08"/><path d="M588 0 V900" stroke="#157A6E" stroke-width="0.7" opacity=".08"/><path d="M616 0 V900" stroke="#157A6E" stroke-width="0.7" opacity=".08"/><path d="M644 0 V900" stroke="#157A6E" stroke-width="0.7" opacity=".08"/><path d="M672 0 V900" stroke="#157A6E" stroke-width="0.7" opacity=".08"/><path d="M700 0 V900" stroke="#157A6E" stroke-width="0.7" opacity=".08"/><path d="M728 0 V900" stroke="#157A6E" stroke-width="0.7" opacity=".08"/><path d="M756 0 V900" stroke="#157A6E" stroke-width="0.7" opacity=".08"/><path d="M784 0 V900" stroke="#157A6E" stroke-width="0.7" opacity=".08"/><path d="M812 0 V900" stroke="#157A6E" stroke-width="0.7" opacity=".08"/><path d="M840 0 V900" stroke="#157A6E" stroke-width="0.7" opacity=".08"/><path d="M868 0 V900" stroke="#157A6E" stroke-width="0.7" opacity=".08"/><path d="M896 0 V900" stroke="#157A6E" stroke-width="0.7" opacity=".08"/><path d="M924 0 V900" stroke="#157A6E" stroke-width="0.7" opacity=".08"/><path d="M952 0 V900" stroke="#157A6E" stroke-width="0.7" opacity=".08"/><path d="M980 0 V900" stroke="#157A6E" stroke-width="0.7" opacity=".08"/><path d="M1008 0 V900" stroke="#157A6E" stroke-width="0.7" opacity=".08"/><path d="M1036 0 V900" stroke="#157A6E" stroke-width="0.7" opacity=".08"/><path d="M1064 0 V900" stroke="#157A6E" stroke-width="0.7" opacity=".08"/><path d="M1092 0 V900" stroke="#157A6E" stroke-width="0.7" opacity=".08"/><path d="M1120 0 V900" stroke="#157A6E" stroke-width="0.7" opacity=".08"/><path d="M1148 0 V900" stroke="#157A6E" stroke-width="0.7" opacity=".08"/><path d="M1176 0 V900" stroke="#157A6E" stroke-width="0.7" opacity=".08"/><path d="M1204 0 V900" stroke="#157A6E" stroke-width="0.7" opacity=".08"/><path d="M1232 0 V900" stroke="#157A6E" stroke-width="0.7" opacity=".08"/><path d="M0 0 H1240" stroke="#157A6E" stroke-width="0.7" opacity=".08"/><path d="M0 28 H1240" stroke="#157A6E" stroke-width="0.7" opacity=".08"/><path d="M0 56 H1240" stroke="#157A6E" stroke-width="0.7" opacity=".08"/><path d="M0 84 H1240" stroke="#157A6E" stroke-width="0.7" opacity=".08"/><path d="M0 112 H1240" stroke="#157A6E" stroke-width="0.7" opacity=".08"/><path d="M0 140 H1240" stroke="#157A6E" stroke-width="0.7" opacity=".08"/><path d="M0 168 H1240" stroke="#157A6E" stroke-width="0.7" opacity=".08"/><path d="M0 196 H1240" stroke="#157A6E" stroke-width="0.7" opacity=".08"/><path d="M0 224 H1240" stroke="#157A6E" stroke-width="0.7" opacity=".08"/><path d="M0 252 H1240" stroke="#157A6E" stroke-width="0.7" opacity=".08"/><path d="M0 280 H1240" stroke="#157A6E" stroke-width="0.7" opacity=".08"/><path d="M0 308 H1240" stroke="#157A6E" stroke-width="0.7" opacity=".08"/><path d="M0 336 H1240" stroke="#157A6E" stroke-width="0.7" opacity=".08"/><path d="M0 364 H1240" stroke="#157A6E" stroke-width="0.7" opacity=".08"/><path d="M0 392 H1240" stroke="#157A6E" stroke-width="0.7" opacity=".08"/><path d="M0 420 H1240" stroke="#157A6E" stroke-width="0.7" opacity=".08"/><path d="M0 448 H1240" stroke="#157A6E" stroke-width="0.7" opacity=".08"/><path d="M0 476 H1240" stroke="#157A6E" stroke-width="0.7" opacity=".08"/><path d="M0 504 H1240" stroke="#157A6E" stroke-width="0.7" opacity=".08"/><path d="M0 532 H1240" stroke="#157A6E" stroke-width="0.7" opacity=".08"/><path d="M0 560 H1240" stroke="#157A6E" stroke-width="0.7" opacity=".08"/><path d="M0 588 H1240" stroke="#157A6E" stroke-width="0.7" opacity=".08"/><path d="M0 616 H1240" stroke="#157A6E" stroke-width="0.7" opacity=".08"/><path d="M0 644 H1240" stroke="#157A6E" stroke-width="0.7" opacity=".08"/><path d="M0 672 H1240" stroke="#157A6E" stroke-width="0.7" opacity=".08"/><path d="M0 700 H1240" stroke="#157A6E" stroke-width="0.7" opacity=".08"/><path d="M0 728 H1240" stroke="#157A6E" stroke-width="0.7" opacity=".08"/><path d="M0 756 H1240" stroke="#157A6E" stroke-width="0.7" opacity=".08"/><path d="M0 784 H1240" stroke="#157A6E" stroke-width="0.7" opacity=".08"/><path d="M0 812 H1240" stroke="#157A6E" stroke-width="0.7" opacity=".08"/><path d="M0 840 H1240" stroke="#157A6E" stroke-width="0.7" opacity=".08"/><path d="M0 868 H1240" stroke="#157A6E" stroke-width="0.7" opacity=".08"/><path d="M0 896 H1240" stroke="#157A6E" stroke-width="0.7" opacity=".08"/><rect x="190" y="150" width="780" height="560" fill="#FFFFFF" stroke="#152420" stroke-width="9"/><line x1="620" y1="150" x2="620" y2="480" stroke="#152420" stroke-width="7"/><line x1="190" y1="480" x2="970" y2="480" stroke="#152420" stroke-width="7"/><line x1="440" y1="480" x2="440" y2="710" stroke="#152420" stroke-width="7"/><rect x="615" y="270" width="12" height="80" fill="#FFFFFF"/><rect x="340" y="476" width="90" height="12" fill="#FFFFFF"/><rect x="670" y="476" width="90" height="12" fill="#FFFFFF"/><rect x="310" y="145" width="140" height="10" fill="#4FA396"/><rect x="750" y="145" width="140" height="10" fill="#4FA396"/><rect x="965" y="570" width="10" height="120" fill="#4FA396"/><rect x="250" y="240" width="230" height="90" rx="14" fill="#EDE9E1" stroke="#8C948F" stroke-width="2"/><circle cx="520" cy="350" r="42" fill="none" stroke="#8C948F" stroke-width="2"/><rect x="660" y="190" width="270" height="70" rx="8" fill="#EDE9E1" stroke="#8C948F" stroke-width="2"/><circle cx="710" cy="225" r="16" fill="none" stroke="#8C948F" stroke-width="2"/><rect x="230" y="510" width="170" height="125" rx="10" fill="#EDE9E1" stroke="#8C948F" stroke-width="2"/><line x1="230" y1="542" x2="400" y2="542" stroke="#8C948F" stroke-width="2"/><rect x="490" y="550" width="90" height="60" rx="8" fill="#EDE9E1" stroke="#8C948F" stroke-width="2"/><circle cx="660" cy="590" r="26" fill="none" stroke="#8C948F" stroke-width="2"/><text x="380" y="410" text-anchor="middle" font-family="Courier New, monospace" font-size="21" fill="#152420" letter-spacing="2">ГОСТИНАЯ</text><text x="380" y="438" text-anchor="middle" font-family="Courier New, monospace" font-size="19" fill="#157A6E">28,4 м²</text><text x="790" y="350" text-anchor="middle" font-family="Courier New, monospace" font-size="21" fill="#152420" letter-spacing="2">КУХНЯ</text><text x="790" y="378" text-anchor="middle" font-family="Courier New, monospace" font-size="19" fill="#157A6E">14,2 м²</text><text x="315" y="685" text-anchor="middle" font-family="Courier New, monospace" font-size="21" fill="#152420" letter-spacing="2">СПАЛЬНЯ</text><text x="315" y="713" text-anchor="middle" font-family="Courier New, monospace" font-size="19" fill="#157A6E">16,8 м²</text><text x="620" y="685" text-anchor="middle" font-family="Courier New, monospace" font-size="21" fill="#152420" letter-spacing="2">САНУЗЕЛ</text><text x="620" y="713" text-anchor="middle" font-family="Courier New, monospace" font-size="19" fill="#157A6E">5,1 м²</text><line x1="190" y1="90" x2="970" y2="90" stroke="#8C948F" stroke-width="1.6"/><line x1="190" y1="82" x2="190" y2="98" stroke="#8C948F" stroke-width="1.6"/><line x1="970" y1="82" x2="970" y2="98" stroke="#8C948F" stroke-width="1.6"/><text x="580" y="80" text-anchor="middle" font-family="Courier New, monospace" font-size="19" fill="#8C948F">9 200 мм</text><line x1="120" y1="150" x2="120" y2="710" stroke="#8C948F" stroke-width="1.6"/><line x1="112" y1="150" x2="128" y2="150" stroke="#8C948F" stroke-width="1.6"/><line x1="112" y1="710" x2="128" y2="710" stroke="#8C948F" stroke-width="1.6"/><text x="108" y="430" text-anchor="middle" font-family="Courier New, monospace" font-size="19" fill="#8C948F" transform="rotate(-90 108 430)">6 600 мм</text></svg>